<?xml version="1.0" encoding="UTF-8"?>
<svg id="Capa_1" xmlns="http://www.w3.org/2000/svg" version="1.1" viewBox="0 0 612 378">
  <!-- Generator: Adobe Illustrator 29.0.1, SVG Export Plug-In . SVG Version: 2.1.0 Build 192)  -->
  <defs>
    <style>
      .st0 {
        fill: #ff9f1a;
      }

      .st1 {
        fill: #fff;
        stroke: #ff8455;
        stroke-miterlimit: 10;
      }
    </style>
  </defs>
  <circle class="st0" cx="306" cy="179" r="108"/>
  <path class="st1" d="M461,279c0,31.48-39.18,57-87.5,57-20.52,0-39.39-4.6-54.31-12.31-15.67,12.92-40.82,21.31-69.19,21.31-33.9,0-63.22-11.97-77.21-29.37-2.89.25-5.82.37-8.79.37-45.29,0-82-28.43-82-63.5s36.71-63.5,82-63.5c14.43,0,27.99,2.89,39.77,7.97,11.31-23.48,38.05-39.97,69.23-39.97,41.42,0,75,29.1,75,65,0,.83-.02,1.65-.06,2.47,8.08-1.61,16.67-2.47,25.56-2.47,48.32,0,87.5,25.52,87.5,57Z"/>
</svg>